<?xml version="1.0" encoding="UTF-8"?>
<svg xmlns="http://www.w3.org/2000/svg" viewBox="0 0 640 640">
  <defs>
    <linearGradient id="brightCloth" x1="0%" y1="0%" x2="0%" y2="100%">
      <stop offset="0%" stop-color="#2d8a4b" />
      <stop offset="100%" stop-color="#38a55b" />
    </linearGradient>
    <linearGradient id="richWood" x1="0%" y1="0%" x2="100%" y2="100%">
      <stop offset="0%" stop-color="#9c5d2d" />
      <stop offset="100%" stop-color="#6e3f1c" />
    </linearGradient>
    <linearGradient id="chrome" x1="0%" y1="0%" x2="100%" y2="100%">
      <stop offset="0%" stop-color="#f2f4f9" />
      <stop offset="50%" stop-color="#c8d2e1" />
      <stop offset="100%" stop-color="#ffffff" />
    </linearGradient>
  </defs>
  <rect width="640" height="640" fill="#101417" />
  <g transform="translate(80 80)">
    <rect width="480" height="480" rx="38" fill="url(#richWood)" />
    <rect x="52" y="52" width="376" height="376" rx="16" fill="url(#brightCloth)" />
    <g fill="#0b0b0b">
      <circle cx="52" cy="52" r="30" />
      <circle cx="428" cy="52" r="30" />
      <circle cx="52" cy="428" r="30" />
      <circle cx="428" cy="428" r="30" />
      <circle cx="240" cy="52" r="26" />
      <circle cx="240" cy="428" r="26" />
    </g>
    <g fill="none" stroke="#0b0b0b" stroke-width="18" stroke-linecap="round">
      <path d="M52 52 L148 52" />
      <path d="M428 52 L332 52" />
      <path d="M52 428 L148 428" />
      <path d="M428 428 L332 428" />
    </g>
    <g fill="none" stroke="#0b0b0b" stroke-width="14" stroke-linecap="round">
      <path d="M240 52 L240 112" />
      <path d="M240 428 L240 368" />
    </g>
    <g fill="url(#chrome)">
      <path d="M36 52 a16 16 0 0 1 16 -16 h56 v32 h-56 a16 16 0 0 1 -16 -16z" />
      <path d="M444 52 a16 16 0 0 0 -16 -16 h-56 v32 h56 a16 16 0 0 0 16 -16z" />
      <path d="M36 428 a16 16 0 0 0 16 16 h56 v-32 h-56 a16 16 0 0 0 -16 16z" />
      <path d="M444 428 a16 16 0 0 1 -16 16 h-56 v-32 h56 a16 16 0 0 1 16 16z" />
      <rect x="188" y="36" width="104" height="28" rx="12" />
      <rect x="188" y="436" width="104" height="28" rx="12" />
    </g>
  </g>
  <text x="50%" y="600" fill="#fdfdfd" font-family="'Inter', sans-serif" font-size="42" text-anchor="middle">
    Desired chrome & rim layout
  </text>
</svg>
