{"asset":{"version":"2.0","generator":"THREE.GLTFExporter r164"},"scenes":[{"name":"AuxScene","nodes":[0]}],"scene":0,"nodes":[{"name":"roadside-rail","extras":{"units":"metres","author":"TonPlaygram","license":"CC0-1.0"},"mesh":0}],"bufferViews":[{"buffer":0,"byteOffset":0,"byteLength":4320,"target":34962,"byteStride":12},{"buffer":0,"byteOffset":4320,"byteLength":4320,"target":34962,"byteStride":12},{"buffer":0,"byteOffset":8640,"byteLength":2880,"target":34962,"byteStride":8},{"buffer":0,"byteOffset":11520,"byteLength":1080,"target":34963}],"buffers":[{"byteLength":12600,"uri":"data:application/octet-stream;base64,"}],"accessors":[{"bufferView":0,"componentType":5126,"count":360,"max":[1.3174999952316284,1.100000023841858,0.03750000149011612],"min":[-1.3174999952316284,-1.1920929132713809e-8,-0.03750000149011612],"type":"VEC3"},{"bufferView":1,"componentType":5126,"count":360,"max":[1,1,1],"min":[-1,-1,-1],"type":"VEC3"},{"bufferView":2,"componentType":5126,"count":360,"max":[1,1],"min":[0,0],"type":"VEC2"},{"bufferView":3,"componentType":5123,"count":540,"max":[359],"min":[0],"type":"SCALAR"}],"materials":[{"pbrMetallicRoughness":{"baseColorFactor":[0.061246054224174035,0.08650046202808521,0.08437621153575764,1],"metallicFactor":0.72,"roughnessFactor":0.42}}],"meshes":[{"primitives":[{"mode":4,"attributes":{"POSITION":0,"NORMAL":1,"TEXCOORD_0":2},"indices":3,"material":0}]}]}