<svg xmlns="http://www.w3.org/2000/svg" viewBox="0 0 1280 720" role="img" aria-label="TonPlaygram splash">
  <defs>
    <linearGradient id="splash" x1="0" x2="1" y1="0" y2="1">
      <stop offset="0%" stop-color="#0c1020" />
      <stop offset="50%" stop-color="#1a2450" />
      <stop offset="100%" stop-color="#00f7ff" />
    </linearGradient>
    <linearGradient id="accent" x1="0" x2="1" y1="0" y2="0">
      <stop offset="0%" stop-color="#6c38ff" />
      <stop offset="100%" stop-color="#00f7ff" />
    </linearGradient>
  </defs>
  <rect width="1280" height="720" fill="url(#splash)" />
  <rect x="80" y="80" width="1120" height="560" rx="48" ry="48" fill="#0c1020" opacity="0.55" />
  <g transform="translate(190 120)">
    <text x="0" y="120" font-size="110" font-family="'Luckiest Guy', 'Comic Sans MS', cursive" fill="#ffffff" stroke="#000" stroke-width="4">TonPlaygram</text>
    <text x="6" y="190" font-size="48" font-family="'Inter', 'Arial', sans-serif" fill="#c7eaff">WebApp • Games • Wallet</text>
    <rect x="0" y="230" width="900" height="14" fill="url(#accent)" rx="7" ry="7" />
    <rect x="0" y="260" width="820" height="14" fill="url(#accent)" opacity="0.7" rx="7" ry="7" />
  </g>
  <g transform="translate(820 200)">
    <circle cx="120" cy="140" r="120" fill="#11172f" stroke="#00f7ff" stroke-width="10" />
    <circle cx="120" cy="140" r="84" fill="#00f7ff" opacity="0.15" />
    <path d="M120 60c-52 0-94 42-94 94s42 94 94 94 94-42 94-94-42-94-94-94z" fill="#ffffff" opacity="0.85" />
    <circle cx="120" cy="120" r="28" fill="#ffffff" />
    <path d="M82 210c14-40 36-74 76-96 40 22 62 56 76 96l-30 14c-10-28-25-54-46-74-20 20-35 46-45 74z" fill="#ffffff" />
  </g>
</svg>
