{"asset":{"version":"2.0","generator":"TonPlaygram Eastern Carbine static glTF asset"},"scene":0,"scenes":[{"nodes":[0,1,2,3,4,5,6,7,8,9,10,11,12,13,14,15,16]}],"nodes":[{"name":"walnut shoulder buttstock","mesh":4,"scale":[0.24,0.16,0.13],"translation":[-0.62,-0.015,0],"rotation":[0,0,-0.08987854919801104,0.9959527330119943]},{"name":"tapered walnut rifle stock","mesh":4,"scale":[0.48,0.095,0.105],"translation":[-0.34,0.0,0],"rotation":[0,0,-0.03998933418663416,0.9992001066609779]},{"name":"dark receiver block","mesh":2,"scale":[0.28,0.075,0.092],"translation":[0.03,0.03,0]},{"name":"upper receiver cover","mesh":3,"scale":[0.22,0.038,0.086],"translation":[0.08,0.088,0],"rotation":[0,0,0.024997395914712332,0.9996875162757026]},{"name":"walnut upper handguard","mesh":4,"scale":[0.42,0.066,0.086],"translation":[0.34,0.031,0],"rotation":[0,0,0.012499674481709789,0.9999218760172474]},{"name":"long steel barrel","mesh":7,"scale":[0.82,0.017,0.017],"translation":[0.62,0.05,0]},{"name":"front muzzle collar","mesh":7,"scale":[0.095,0.027,0.027],"translation":[1.05,0.05,0]},{"name":"parallel gas tube","mesh":6,"scale":[0.52,0.014,0.014],"translation":[0.51,0.094,0]},{"name":"curved box magazine","mesh":2,"scale":[0.14,0.12,0.078],"translation":[0.005,-0.073,0],"rotation":[0,0,-0.059964006479444595,0.9982005399352042]},{"name":"trigger guard loop","mesh":3,"scale":[0.15,0.028,0.072],"translation":[-0.1,-0.104,0],"rotation":[0,0,-0.059964006479444595,0.9982005399352042]},{"name":"trigger blade","mesh":3,"scale":[0.028,0.075,0.024],"translation":[-0.044,-0.104,0],"rotation":[0,0,-0.08987854919801104,0.9959527330119943]},{"name":"front sight post","mesh":3,"scale":[0.032,0.078,0.05],"translation":[0.86,0.102,0]},{"name":"rear tangent sight","mesh":3,"scale":[0.065,0.044,0.052],"translation":[0.2,0.102,0],"rotation":[0,0,0.059964006479444595,0.9982005399352042]},{"name":"folded bayonet blade","mesh":3,"scale":[0.58,0.012,0.024],"translation":[0.61,-0.018,0],"rotation":[0,0,0.008999878500492074,0.9999595002733742]},{"name":"bayonet brass hinge","mesh":9,"scale":[0.052,0.022,0.022],"translation":[0.34,-0.015,0]},{"name":"small brass stock rivet left","mesh":9,"scale":[0.012,0.008,0.008],"translation":[-0.43,0.053,0.058]},{"name":"small brass stock rivet right","mesh":9,"scale":[0.012,0.008,0.008],"translation":[-0.43,0.053,-0.058]}],"meshes":[{"name":"box part","primitives":[{"attributes":{"POSITION":0,"NORMAL":1},"indices":2,"material":0}]},{"name":"cylinder part","primitives":[{"attributes":{"POSITION":3,"NORMAL":4},"indices":5,"material":0}]},{"name":"box part","primitives":[{"attributes":{"POSITION":0,"NORMAL":1},"indices":2,"material":0}]},{"name":"box part","primitives":[{"attributes":{"POSITION":0,"NORMAL":1},"indices":2,"material":1}]},{"name":"box part","primitives":[{"attributes":{"POSITION":0,"NORMAL":1},"indices":2,"material":2}]},{"name":"box part","primitives":[{"attributes":{"POSITION":0,"NORMAL":1},"indices":2,"material":3}]},{"name":"cylinder part","primitives":[{"attributes":{"POSITION":3,"NORMAL":4},"indices":5,"material":0}]},{"name":"cylinder part","primitives":[{"attributes":{"POSITION":3,"NORMAL":4},"indices":5,"material":1}]},{"name":"cylinder part","primitives":[{"attributes":{"POSITION":3,"NORMAL":4},"indices":5,"material":2}]},{"name":"cylinder part","primitives":[{"attributes":{"POSITION":3,"NORMAL":4},"indices":5,"material":3}]}],"materials":[{"name":"oxidized gunmetal","pbrMetallicRoughness":{"baseColorFactor":[0.018,0.024,0.033,1],"metallicFactor":0.68,"roughnessFactor":0.42}},{"name":"dark parkerized steel","pbrMetallicRoughness":{"baseColorFactor":[0.006,0.009,0.014,1],"metallicFactor":0.82,"roughnessFactor":0.36}},{"name":"walnut varnished wood","pbrMetallicRoughness":{"baseColorFactor":[0.42,0.26,0.13,1],"metallicFactor":0.05,"roughnessFactor":0.66}},{"name":"worn brass sight dots","pbrMetallicRoughness":{"baseColorFactor":[0.82,0.62,0.25,1],"metallicFactor":0.7,"roughnessFactor":0.32}}],"buffers":[{"uri":"data:application/octet-stream;base64,","byteLength":4056}],"bufferViews":[{"buffer":0,"byteOffset":0,"byteLength":288},{"buffer":0,"byteOffset":288,"byteLength":288},{"buffer":0,"byteOffset":576,"byteLength":72},{"buffer":0,"byteOffset":648,"byteLength":1368},{"buffer":0,"byteOffset":2016,"byteLength":1368},{"buffer":0,"byteOffset":3384,"byteLength":672}],"accessors":[{"bufferView":0,"componentType":5126,"count":24,"type":"VEC3","min":[-0.5,-0.5,-0.5],"max":[0.5,0.5,0.5]},{"bufferView":1,"componentType":5126,"count":24,"type":"VEC3"},{"bufferView":2,"componentType":5123,"count":36,"type":"SCALAR"},{"bufferView":3,"componentType":5126,"count":114,"type":"VEC3","min":[-0.5,-1.0,-1.0],"max":[0.5,1.0,1.0]},{"bufferView":4,"componentType":5126,"count":114,"type":"VEC3"},{"bufferView":5,"componentType":5123,"count":336,"type":"SCALAR"}],"extras":{"source":"Sketchfab reference https://skfb.ly/pKGIA","author":"Dezryelle","license":"CC Attribution 4.0","note":"Static glTF runtime asset for Chess Battle Royal; no procedural runtime fallback."}}