<svg xmlns="http://www.w3.org/2000/svg" viewBox="0 0 400 400" fill="none" shape-rendering="auto"><metadata xmlns:rdf="http://www.w3.org/1999/02/22-rdf-syntax-ns#" xmlns:xsi="http://www.w3.org/2001/XMLSchema-instance" xmlns:dc="http://purl.org/dc/elements/1.1/" xmlns:dcterms="http://purl.org/dc/terms/"><rdf:RDF><rdf:Description><dc:title>Adventurer Neutral</dc:title><dc:creator>Lisa Wischofsky</dc:creator><dc:source xsi:type="dcterms:URI">https://www.figma.com/community/file/1184595184137881796</dc:source><dcterms:license xsi:type="dcterms:URI">https://creativecommons.org/licenses/by/4.0/</dcterms:license><dc:rights>Remix of „Adventurer Neutral” (https://www.figma.com/community/file/1184595184137881796) by „Lisa Wischofsky”, licensed under „CC BY 4.0” (https://creativecommons.org/licenses/by/4.0/)</dc:rights></rdf:Description></rdf:RDF></metadata><mask id="viewboxMask"><rect width="400" height="400" rx="0" ry="0" x="0" y="0" fill="#fff" /></mask><g mask="url(#viewboxMask)"><rect fill="#f2d3b1" width="400" height="400" x="0" y="0" /><g transform="translate(-279 -322)"><path fill-rule="evenodd" clip-rule="evenodd" d="M612.99 456.04a65.1 65.1 0 0 0-38.46-29.54 66.07 66.07 0 0 0-39.02 1.1 65.93 65.93 0 0 0-36.82 32.08c-3.28 6.32-5.17 13.09-6.5 20.06-4.4.35-8.76.83-13.04 1.93.19.5.3 1.03.4 1.54.27 1.36.52 2.6 2.24 2.92 2.35.22 4.76 0 7.15-.22.92-.08 1.84-.16 2.75-.22-.56 12.87 2.24 25.63 8.92 36.7a65.2 65.2 0 0 0 40.45 30.25 65.99 65.99 0 0 0 37-1.54 65.75 65.75 0 0 0 34.03-27A65.76 65.76 0 0 0 622.15 490c.06-3.79-.4-7.45-.86-11.15l-.35-2.92c.94-.1 1.9-.19 2.86-.27 2.31-.2 4.64-.4 6.85-.98 1.2-.46 1.44-1.64 1.68-2.8.1-.48.2-.95.36-1.37-4.4-1.13-8.7-.78-13.15-.28-.5-1.18-1-2.35-1.47-3.53-1.5-3.64-2.98-7.25-5.08-10.67Zm.6 14.63c-4.83-13.64-13.96-25.42-26.55-32.68-13.32-7.97-29.57-10.1-44.6-6.46a59.5 59.5 0 0 0-35.54 25.37c-4.25 6.8-7.73 14.51-8.83 22.5a439.7 439.7 0 0 1 17.89-1.48c4.84-.34 9.69-.67 14.53-1.14 3.63-.32 7.27-.51 10.91-.7 4.86-.25 9.72-.5 14.54-1.08 16.39-1.12 32.79-2.4 49.17-3.67l8.47-.66Zm-200.21-17.1c11.97 6.5 20.98 17.4 25.57 30.16 2.69.16 5.36.38 8.03.75l-.1.7c-.16 1.02-.31 2.03-.6 3.05-1.04.76-2.47 1.03-3.83 1.29-.57.1-1.13.21-1.65.35 1.33 8.86 1.68 17.54-.78 26.25a54.8 54.8 0 0 1-59.8 40.22 54.77 54.77 0 0 1-39.64-24.94c-6.25-9.68-8.98-21.04-8.76-32.5-2.42-.02-4.82-.1-7.23-.28.08-.37.11-.82.15-1.3.1-1.25.2-2.69 1.15-3.27 1.54-.49 3.19-.68 4.81-.88a72.5 72.5 0 0 0 1.82-.23c1.4-6.54 3.35-12.87 6.78-18.66a55.05 55.05 0 0 1 74.08-20.7Zm19.77 30.84c-7.08-18.8-25.97-32.07-46.15-31.85-18.18-.19-35.6 10.43-43.83 26.64-2.2 4.2-3.57 8.69-4.72 13.28 7-.47 14-1.08 20.99-1.7 6.19-.54 12.38-1.08 18.58-1.52 3.77-.09 7.52-.47 11.26-.85 3.9-.4 7.78-.8 11.7-.86l6.3-.46c8.65-.6 17.33-1.22 25.87-2.67Z" fill="#000"/><path d="M615.13 476.4c1.79 9.43 1.83 19.44-.85 28.71a59.84 59.84 0 0 1-26.86 35.35c-11.86 6.95-25.9 9.98-39.53 7.74a59.74 59.74 0 0 1-40.06-25.03c-7.65-11.07-11.16-24.46-10.6-37.86 2.78-.26 5.55-.53 8.32-.81.58 6.88 2.87 13.16 8.1 17.84 9.27 8.8 25.13 8.57 33.96-.73 5.71-5.52 7.56-12.65 7.15-20.42 4.5-.5 8.95-1.1 13.47-1.39 15.64-.93 31.25-2.54 46.9-3.4ZM430.93 490.81c1.23-.4 2.51-.66 3.76-.97 3.28 11.9 1.31 24.64-4.45 35.44a49.5 49.5 0 0 1-33.98 24.89c-17.42 3.66-36.18-3.36-47.37-17.1-8.08-9.7-11.83-22.11-11.18-34.67 16.43-1.6 32.94-2.6 49.35-4.39.17 5.54 1.15 10.77 4.71 15.18a22.27 22.27 0 0 0 23.42 7.93c7.1-2.26 13-7.85 15.04-15.1 1.18-3.81.53-7.35.7-11.2Z" fill="#fff"/></g><g transform="translate(-279 -322)"><g fill="#000"><path d="M517.07 379.66c.86-.91 2.17-2.3 1.77-3.56-.35-2.45-3.58-3.11-5.22-1.46a221.7 221.7 0 0 0-8.34 7.33c-2.16 1.96-4.3 3.92-6.5 5.8a117.9 117.9 0 0 1-3.06 2.73c-2.64 2.3-5.21 4.56-7.32 7.5.33.33.6.68.88 1.02.72.9 1.4 1.74 2.73 1.81 1.5-.08 2.71-1.13 3.82-2.1l.41-.35c4.3-4 8.7-7.9 13.1-11.8 2.52-2.24 5.05-4.47 7.55-6.73l.06-.07.12-.12ZM539.69 378.66c.54-1.8-.18-2.95-1.6-4-2-.34-3.84.74-5.58 1.76-.44.26-.87.51-1.3.74-4.43 2.64-8.92 5.2-13.4 7.77-4.83 2.76-9.66 5.51-14.4 8.37-1.63.86-1.65 2.04-1.68 3.44 0 .45-.02.93-.08 1.42.46.1.9.24 1.31.38 1.2.4 2.27.75 3.58-.05 5.06-2.8 10.07-5.7 15.09-8.62a959.63 959.63 0 0 1 14.42-8.28c1.36-.8 2.87-1.67 3.65-2.94ZM566.39 378.4c2.1-.74 4.24.22 4.44 2.6-.08 2.3-1.76 2.9-3.53 3.51l-.77.28c-12.18 3.72-24.35 7.5-36.5 11.31-.37.09-.73.2-1.08.3-1.34.4-2.64.78-4 .08-1.82-1.26-1.8-4.32.36-5.22 1.8-.82 3.73-1.38 5.65-1.93a4048.39 4048.39 0 0 0 14.1-4.35c7.1-2.22 14.2-4.44 21.33-6.58ZM589.38 390.36c1.02-1.63.62-2.97-.45-4.43-2.25-.73-4.9-.11-7.4.47-.87.2-1.72.4-2.52.53-2.84.58-5.7 1.14-8.54 1.7h-.02c-4.14.81-8.27 1.62-12.4 2.5-1.87.47-3.69 1.64-3.1 3.87.65 2.02 2.02 2.45 4.03 2.12 4.01-.7 8-1.52 12-2.35 3.85-.8 7.7-1.6 11.56-2.27l1.3-.26c1.93-.36 4.05-.75 5.54-1.88ZM405.8 394.7c1.93 1.26 3.85 2.5 5.81 3.7.74.48 1.5.94 2.25 1.4 1.73 1.05 3.47 2.11 5 3.4 1.7 1.35 1.2 4.27-.83 5-1.8.35-3.06-.44-4.43-1.29l-.94-.56c-4.3-2.78-8.62-5.51-12.95-8.25l-4.17-2.64c-.1-.08-.22-.17-.35-.25l-.37-.27c-1.1-.75-2.42-1.66-2.4-2.93-.35-2.43 2.22-4.08 4.37-2.87 3.08 1.7 6.05 3.64 9.01 5.57Z"/><path d="M383.94 395.53a45.88 45.88 0 0 0-5.95-1.72c-2.5-.5-4.12 2.02-3.31 4.28 1.14 1.27 2.56 1.75 4.08 2.26l.4.14.32.1c4.02 1.26 8.03 2.55 12.03 3.85h.03c4.14 1.34 8.27 2.68 12.42 3.96 2.46.78 4.88.57 5.36-2.42-.17-2.11-2-2.8-3.72-3.44l-.15-.05-.23-.09-.5-.2c-6.06-1.95-12.14-3.89-18.22-5.83-.85-.26-1.7-.55-2.56-.84ZM587.13 395.34c3.45-.22 6.9-.28 10.37-.34 2.5-.05 5-.1 7.5-.2.4.03.84.03 1.3.03 1.67 0 3.6 0 4.35 1.53 1.26 1.74-.2 3.78-2.02 4.19-2.91.62-6.04.6-9.1.58-1.19 0-2.37-.01-3.53.02-1 0-2 .04-3 .07-1.68.05-3.36.1-5.04.04-1.22 0-3.12-.35-3.5-1.7a3 3 0 0 1 2.67-4.22ZM360.28 402.87c-2.04-.1-4.17-.2-6.08.32-1.5 1.2-1.47 3.44-.15 4.8 1.66.7 3.64.86 5.45 1l.16.01.32.03c3.43.16 6.85.37 10.27.58 3.92.25 7.83.49 11.74.66.85.02 1.72.1 2.6.18 1.84.18 3.72.35 5.44-.06a2.78 2.78 0 0 0 1.12-4.59c-.84-.99-1.87-1.05-2.98-1.12-.38-.03-.77-.05-1.16-.11l-12.51-.81-12.5-.81c-.57-.01-1.14-.04-1.73-.07ZM348.97 411.64l4.48-.33c4.19-.34 8.4-.68 12.56-.42 2.93.26 3.13 4.75.25 5.42-2.9.73-5.97.84-9.03.96-1.76.06-3.52.13-5.23.31-1.17.04-2.36.15-3.55.25-2.47.22-4.96.44-7.36.12-2.45-.43-2.74-4.43-.52-5.35 1.77-.65 3.79-.73 5.76-.8.9-.04 1.79-.07 2.64-.16ZM345.51 425.36c2.91-.95 2.78-5.26-.48-5.63-2.85.03-5.72.55-8.57 1.06-1.35.24-2.69.48-4.02.67-.74.18-1.6.3-2.52.4-2.27.28-4.78.6-6.04 2.18-1.16 2.39.53 4.6 3.07 4.38 6.17-.74 12.5-1.76 18.56-3.06Z"/></g></g><g transform="translate(-279 -322)"><path d="M453.25 567.36c4.1-.57 8.25-.35 12.08 1.33 7.6 3.15 12.7 10.48 14.48 18.34 3.17 12.11-1.32 25.91-11.67 33.21-3.02 2.43-6.72 3.47-10.48 2.14-3.55-1.73-5.24-5.25-6.16-8.9-1.46-5.32 1.2-10.53.14-16.17-1-4.18-4.74-7.42-6.58-11.4-1.24-2.68-2.42-5.94-2.07-8.92.75-5.02 5.39-8.88 10.26-9.63Z" fill="#000"/></g><g transform="translate(-279 -322)"></g></g></svg>
