<svg xmlns="http://www.w3.org/2000/svg" viewBox="0 0 400 400" fill="none" shape-rendering="auto"><metadata xmlns:rdf="http://www.w3.org/1999/02/22-rdf-syntax-ns#" xmlns:xsi="http://www.w3.org/2001/XMLSchema-instance" xmlns:dc="http://purl.org/dc/elements/1.1/" xmlns:dcterms="http://purl.org/dc/terms/"><rdf:RDF><rdf:Description><dc:title>Adventurer Neutral</dc:title><dc:creator>Lisa Wischofsky</dc:creator><dc:source xsi:type="dcterms:URI">https://www.figma.com/community/file/1184595184137881796</dc:source><dcterms:license xsi:type="dcterms:URI">https://creativecommons.org/licenses/by/4.0/</dcterms:license><dc:rights>Remix of „Adventurer Neutral” (https://www.figma.com/community/file/1184595184137881796) by „Lisa Wischofsky”, licensed under „CC BY 4.0” (https://creativecommons.org/licenses/by/4.0/)</dc:rights></rdf:Description></rdf:RDF></metadata><mask id="viewboxMask"><rect width="400" height="400" rx="0" ry="0" x="0" y="0" fill="#fff" /></mask><g mask="url(#viewboxMask)"><rect fill="#f2d3b1" width="400" height="400" x="0" y="0" /><g transform="translate(-279 -322)"><path fill-rule="evenodd" clip-rule="evenodd" d="M612.99 456.04a65.1 65.1 0 0 0-38.46-29.54 66.07 66.07 0 0 0-39.02 1.1 65.93 65.93 0 0 0-36.82 32.08c-3.28 6.32-5.17 13.09-6.5 20.06-4.4.35-8.76.83-13.04 1.93.19.5.3 1.03.4 1.54.27 1.36.52 2.6 2.24 2.92 2.35.22 4.76 0 7.15-.22.92-.08 1.84-.16 2.75-.22-.56 12.87 2.24 25.63 8.92 36.7a65.2 65.2 0 0 0 40.45 30.25 65.99 65.99 0 0 0 37-1.54 65.75 65.75 0 0 0 34.03-27A65.76 65.76 0 0 0 622.15 490c.06-3.79-.4-7.45-.86-11.15l-.35-2.92c.94-.1 1.9-.19 2.86-.27 2.31-.2 4.64-.4 6.85-.98 1.2-.46 1.44-1.64 1.68-2.8.1-.48.2-.95.36-1.37-4.4-1.13-8.7-.78-13.15-.28-.5-1.18-1-2.35-1.47-3.53-1.5-3.64-2.98-7.25-5.08-10.67Zm.6 14.63c-4.83-13.64-13.96-25.42-26.55-32.68-13.32-7.97-29.57-10.1-44.6-6.46a59.5 59.5 0 0 0-35.54 25.37c-4.25 6.8-7.73 14.51-8.83 22.5a439.7 439.7 0 0 1 17.89-1.48c4.84-.34 9.69-.67 14.53-1.14 3.63-.32 7.27-.51 10.91-.7 4.86-.25 9.72-.5 14.54-1.08 16.39-1.12 32.79-2.4 49.17-3.67l8.47-.66Zm-200.21-17.1c11.97 6.5 20.98 17.4 25.57 30.16 2.69.16 5.36.38 8.03.75l-.1.7c-.16 1.02-.31 2.03-.6 3.05-1.04.76-2.47 1.03-3.83 1.29-.57.1-1.13.21-1.65.35 1.33 8.86 1.68 17.54-.78 26.25a54.8 54.8 0 0 1-59.8 40.22 54.77 54.77 0 0 1-39.64-24.94c-6.25-9.68-8.98-21.04-8.76-32.5-2.42-.02-4.82-.1-7.23-.28.08-.37.11-.82.15-1.3.1-1.25.2-2.69 1.15-3.27 1.54-.49 3.19-.68 4.81-.88a72.5 72.5 0 0 0 1.82-.23c1.4-6.54 3.35-12.87 6.78-18.66a55.05 55.05 0 0 1 74.08-20.7Zm19.77 30.84c-7.08-18.8-25.97-32.07-46.15-31.85-18.18-.19-35.6 10.43-43.83 26.64-2.2 4.2-3.57 8.69-4.72 13.28 7-.47 14-1.08 20.99-1.7 6.19-.54 12.38-1.08 18.58-1.52 3.77-.09 7.52-.47 11.26-.85 3.9-.4 7.78-.8 11.7-.86l6.3-.46c8.65-.6 17.33-1.22 25.87-2.67Z" fill="#000"/><path d="M615.13 476.4c1.79 9.43 1.83 19.44-.85 28.71a59.84 59.84 0 0 1-26.86 35.35c-11.86 6.95-25.9 9.98-39.53 7.74a59.74 59.74 0 0 1-40.06-25.03c-7.65-11.07-11.16-24.46-10.6-37.86 2.78-.26 5.55-.53 8.32-.81.58 6.88 2.87 13.16 8.1 17.84 9.27 8.8 25.13 8.57 33.96-.73 5.71-5.52 7.56-12.65 7.15-20.42 4.5-.5 8.95-1.1 13.47-1.39 15.64-.93 31.25-2.54 46.9-3.4ZM430.93 490.81c1.23-.4 2.51-.66 3.76-.97 3.28 11.9 1.31 24.64-4.45 35.44a49.5 49.5 0 0 1-33.98 24.89c-17.42 3.66-36.18-3.36-47.37-17.1-8.08-9.7-11.83-22.11-11.18-34.67 16.43-1.6 32.94-2.6 49.35-4.39.17 5.54 1.15 10.77 4.71 15.18a22.27 22.27 0 0 0 23.42 7.93c7.1-2.26 13-7.85 15.04-15.1 1.18-3.81.53-7.35.7-11.2Z" fill="#fff"/></g><g transform="translate(-279 -322)"><path d="M568.44 405.96c-.6-2.92-2.48-4.87-4.6-6.82-11.98-10.95-29.88-15.87-45.64-11.58-9.72 2.4-18.51 8.36-23.63 17.06-2.83 5.03-4.78 10.54-3.98 16.4.08.42.13.83.18 1.23.2 1.63.37 3 2.44 3.54 2.17.12 4.4-.29 6.54-.68l.31-.06 6.22-1.2c5.24-1 10.48-2 15.68-3.19a640.08 640.08 0 0 0 44.88-11.08c1.77-.25 1.7-1.62 1.63-3.02l-.03-.6ZM430.1 431.05c-.81-9.8-8.9-17.41-17.88-20.31a39.68 39.68 0 0 0-38.34 9.13c-4.45 4.18-8.39 9.97-9.12 16.14-.08 2.74 2.36 2.78 4.44 2.82.26 0 .52 0 .77.02 3.02-.08 6.05-.14 9.07-.2 9.34-.17 18.7-.35 27.98-1.3 2.4-.21 4.83-.38 7.24-.54 4.26-.3 8.52-.58 12.74-1.14 2.42.03 3.28-2.6 3.1-4.62Z" fill="#000"/></g><g transform="translate(-279 -322)"><path d="M505.02 633.16c9.06.53 16.84 6.73 24.11 11.4-13.1-.12-26.35 2.18-38.98 5.54-9.44 2.61-18.6 6-27.08 10.96 3.26-8.09 7.87-18.07 16.6-21.4 4-1.93 7.7-1.13 11.94-.82 3.92-3.32 8-6.13 13.4-5.68Z" fill="#D31E1E"/><path d="M529.13 644.56c2.47.2 4.68 1.43 3.9 4.25-1.38 2.08-4.46 1.3-6.64 1.51-14.9.63-29.68 3.43-43.79 8.28-4.83 1.7-9.55 3.58-13.94 6.24-2 .93-3.37 2.59-5.67 1.42-2.15-1.55-1.16-3.48.08-5.2 8.48-4.96 17.64-8.35 27.08-10.96 12.63-3.36 25.89-5.66 38.98-5.54Z" fill="#000"/><path d="M526.39 650.32a39.78 39.78 0 0 1-24.48 18.5c-11 3.05-23.16 1.14-33.24-3.98 4.39-2.66 9.1-4.54 13.94-6.24a154.94 154.94 0 0 1 43.79-8.28Z" fill="#D31E1E"/></g><g transform="translate(-279 -322)"></g></g></svg>
