<svg xmlns="http://www.w3.org/2000/svg" viewBox="0 0 140 120" fill="none">
  <rect width="140" height="120" rx="10" fill="#374151"/>
  <g fill="white">
    <circle cx="15" cy="15" r="6"/>
    <circle cx="33" cy="15" r="6"/>
    <circle cx="51" cy="15" r="6"/>
    <circle cx="69" cy="15" r="6"/>
    <circle cx="87" cy="15" r="6"/>
    <circle cx="105" cy="15" r="6"/>
    <circle cx="123" cy="15" r="6"/>
    <circle cx="15" cy="33" r="6"/>
    <circle cx="33" cy="33" r="6"/>
    <circle cx="51" cy="33" r="6"/>
    <circle cx="69" cy="33" r="6"/>
    <circle cx="87" cy="33" r="6"/>
    <circle cx="105" cy="33" r="6"/>
    <circle cx="123" cy="33" r="6"/>
    <circle cx="15" cy="51" r="6"/>
    <circle cx="33" cy="51" r="6"/>
    <circle cx="51" cy="51" r="6"/>
    <circle cx="69" cy="51" r="6"/>
    <circle cx="87" cy="51" r="6"/>
    <circle cx="105" cy="51" r="6"/>
    <circle cx="123" cy="51" r="6"/>
    <circle cx="15" cy="69" r="6"/>
    <circle cx="33" cy="69" r="6"/>
    <circle cx="51" cy="69" r="6"/>
    <circle cx="69" cy="69" r="6"/>
    <circle cx="87" cy="69" r="6"/>
    <circle cx="105" cy="69" r="6"/>
    <circle cx="123" cy="69" r="6"/>
    <circle cx="15" cy="87" r="6"/>
    <circle cx="33" cy="87" r="6"/>
    <circle cx="51" cy="87" r="6"/>
    <circle cx="69" cy="87" r="6"/>
    <circle cx="87" cy="87" r="6"/>
    <circle cx="105" cy="87" r="6"/>
    <circle cx="123" cy="87" r="6"/>
    <circle cx="15" cy="105" r="6"/>
    <circle cx="33" cy="105" r="6"/>
    <circle cx="51" cy="105" r="6"/>
    <circle cx="69" cy="105" r="6"/>
    <circle cx="87" cy="105" r="6"/>
    <circle cx="105" cy="105" r="6"/>
    <circle cx="123" cy="105" r="6"/>
  </g>\n</svg>
