<svg xmlns="http://www.w3.org/2000/svg" viewBox="0 0 512 512" role="img" aria-labelledby="title desc">
  <title id="title">RunMan game icon</title>
  <desc id="desc">A neon runner crossing a maze with diamonds and robots.</desc>
  <defs>
    <linearGradient id="bg" x1="48" y1="40" x2="464" y2="472" gradientUnits="userSpaceOnUse">
      <stop stop-color="#0f172a"/>
      <stop offset=".52" stop-color="#172554"/>
      <stop offset="1" stop-color="#020617"/>
    </linearGradient>
    <linearGradient id="runner" x1="158" y1="124" x2="346" y2="376" gradientUnits="userSpaceOnUse">
      <stop stop-color="#67e8f9"/>
      <stop offset=".42" stop-color="#3b82f6"/>
      <stop offset="1" stop-color="#ef4444"/>
    </linearGradient>
    <filter id="glow" x="-50%" y="-50%" width="200%" height="200%">
      <feGaussianBlur stdDeviation="8" result="blur"/>
      <feMerge>
        <feMergeNode in="blur"/>
        <feMergeNode in="SourceGraphic"/>
      </feMerge>
    </filter>
  </defs>
  <rect width="512" height="512" rx="112" fill="url(#bg)"/>
  <path d="M85 140h88v48h-40v60H85v-108Zm254 0h88v108h-48v-60h-40v-48ZM85 324h48v60h40v48H85V324Zm294 0h48v108h-88v-48h40v-60Z" fill="#0ea5e9" opacity=".34"/>
  <path d="M105 274h86m130 0h86M235 102v72m0 164v72" stroke="#38bdf8" stroke-width="18" stroke-linecap="round" opacity=".35"/>
  <g filter="url(#glow)">
    <path d="m319 153 32 32-32 32-32-32 32-32Zm-145 213 26 26-26 26-26-26 26-26Z" fill="#facc15"/>
    <circle cx="350" cy="344" r="28" fill="#22d3ee" opacity=".75"/>
  </g>
  <g fill="url(#runner)" filter="url(#glow)">
    <circle cx="247" cy="147" r="38"/>
    <path d="M234 190c23-13 55-1 66 23l20 43 53-1c17-1 28 12 28 26 0 15-11 27-27 28l-72 3c-12 0-22-6-27-17l-15-32-31 38 50 25c13 7 20 22 15 36l-24 78c-5 17-23 26-39 20-16-5-25-22-20-38l16-52-59-30c-28-14-35-51-15-75l38-46-47 16-22 45c-7 14-23 20-37 14-14-7-20-23-13-37l28-57c4-8 11-14 20-17l116-43Z"/>
  </g>
  <path d="M69 449c74-28 133-34 192-20 60 14 115 10 181-22" fill="none" stroke="#67e8f9" stroke-width="12" stroke-linecap="round" opacity=".55"/>
</svg>
