<svg width="512" height="512" viewBox="0 0 512 512" fill="none" xmlns="http://www.w3.org/2000/svg" role="img" aria-label="GoKart by SuperTuxKart">
  <defs>
    <linearGradient id="bg" x1="64" y1="48" x2="448" y2="464" gradientUnits="userSpaceOnUse">
      <stop stop-color="#1D4ED8"/>
      <stop offset="1" stop-color="#0EA5E9"/>
    </linearGradient>
    <linearGradient id="kart" x1="120" y1="216" x2="380" y2="360" gradientUnits="userSpaceOnUse">
      <stop stop-color="#F59E0B"/>
      <stop offset="1" stop-color="#F97316"/>
    </linearGradient>
  </defs>
  <rect x="24" y="24" width="464" height="464" rx="96" fill="url(#bg)"/>
  <circle cx="172" cy="356" r="52" fill="#111827"/>
  <circle cx="340" cy="356" r="52" fill="#111827"/>
  <circle cx="172" cy="356" r="26" fill="#9CA3AF"/>
  <circle cx="340" cy="356" r="26" fill="#9CA3AF"/>
  <path d="M94 294C94 247.072 132.072 209 179 209H327.34C352.558 209 375.483 223.332 386.585 245.974L404.601 282.704C409.478 292.648 402.239 304 391.164 304H214.5C194.341 304 176.778 317.591 171.743 337.111L166 359H94V294Z" fill="url(#kart)"/>
  <path d="M196 186C196 167.222 211.222 152 230 152H290C308.778 152 324 167.222 324 186V210H196V186Z" fill="#E5E7EB"/>
  <path d="M224 152H288V128C288 110.327 273.673 96 256 96C238.327 96 224 110.327 224 128V152Z" fill="#DBEAFE"/>
  <path d="M113 420C127.628 392.15 156.828 373 190.5 373H321.5C355.172 373 384.372 392.15 399 420H113Z" fill="#0F172A" fill-opacity="0.28"/>
  <text x="256" y="456" text-anchor="middle" fill="white" font-size="44" font-family="Arial, Helvetica, sans-serif" font-weight="700">GoKart</text>
</svg>
