<svg xmlns="http://www.w3.org/2000/svg" viewBox="0 0 1024 1024">
  <defs>
    <filter id="boardShadow" x="-10%" y="-10%" width="120%" height="120%">
      <feDropShadow dx="0" dy="2" stdDeviation="1.5" flood-color="#000" flood-opacity="0.28"/>
    </filter>
    <style>
      .g { stroke:#2f1808; stroke-linecap:round; stroke-opacity:.86; }
      .s { fill:#251208; opacity:.95; }
    </style>
  </defs>
  <image href="/assets/game-art/baduk-battle-royal/boards/ogs-anime-board.svg" x="0" y="0" width="1024" height="1024" preserveAspectRatio="none"/>
  <rect x="80" y="80" width="864" height="864" fill="none" stroke="#6e4724" stroke-opacity="0.45" stroke-width="2.4" filter="url(#boardShadow)"/>
  <line x1="86.00" y1="86" x2="86.00" y2="938" class="g" stroke-width="3.2"/><line x1="86" y1="86.00" x2="938" y2="86.00" class="g" stroke-width="3.2"/><line x1="157.00" y1="86" x2="157.00" y2="938" class="g" stroke-width="2.4"/><line x1="86" y1="157.00" x2="938" y2="157.00" class="g" stroke-width="2.4"/><line x1="228.00" y1="86" x2="228.00" y2="938" class="g" stroke-width="2.4"/><line x1="86" y1="228.00" x2="938" y2="228.00" class="g" stroke-width="2.4"/><line x1="299.00" y1="86" x2="299.00" y2="938" class="g" stroke-width="2.4"/><line x1="86" y1="299.00" x2="938" y2="299.00" class="g" stroke-width="2.4"/><line x1="370.00" y1="86" x2="370.00" y2="938" class="g" stroke-width="2.4"/><line x1="86" y1="370.00" x2="938" y2="370.00" class="g" stroke-width="2.4"/><line x1="441.00" y1="86" x2="441.00" y2="938" class="g" stroke-width="2.4"/><line x1="86" y1="441.00" x2="938" y2="441.00" class="g" stroke-width="2.4"/><line x1="512.00" y1="86" x2="512.00" y2="938" class="g" stroke-width="2.4"/><line x1="86" y1="512.00" x2="938" y2="512.00" class="g" stroke-width="2.4"/><line x1="583.00" y1="86" x2="583.00" y2="938" class="g" stroke-width="2.4"/><line x1="86" y1="583.00" x2="938" y2="583.00" class="g" stroke-width="2.4"/><line x1="654.00" y1="86" x2="654.00" y2="938" class="g" stroke-width="2.4"/><line x1="86" y1="654.00" x2="938" y2="654.00" class="g" stroke-width="2.4"/><line x1="725.00" y1="86" x2="725.00" y2="938" class="g" stroke-width="2.4"/><line x1="86" y1="725.00" x2="938" y2="725.00" class="g" stroke-width="2.4"/><line x1="796.00" y1="86" x2="796.00" y2="938" class="g" stroke-width="2.4"/><line x1="86" y1="796.00" x2="938" y2="796.00" class="g" stroke-width="2.4"/><line x1="867.00" y1="86" x2="867.00" y2="938" class="g" stroke-width="2.4"/><line x1="86" y1="867.00" x2="938" y2="867.00" class="g" stroke-width="2.4"/><line x1="938.00" y1="86" x2="938.00" y2="938" class="g" stroke-width="3.2"/><line x1="86" y1="938.00" x2="938" y2="938.00" class="g" stroke-width="3.2"/>
  <circle cx="299.00" cy="299.00" r="6.8" class="s"/><circle cx="725.00" cy="299.00" r="6.8" class="s"/><circle cx="299.00" cy="725.00" r="6.8" class="s"/><circle cx="725.00" cy="725.00" r="6.8" class="s"/><circle cx="512.00" cy="512.00" r="6.8" class="s"/>
</svg>