<svg xmlns="http://www.w3.org/2000/svg" viewBox="0 0 1400 1400" role="img" aria-label="Baduk 16x16 board">
  <defs>
    <linearGradient id="wood" x1="0" y1="0" x2="1" y2="1">
      <stop offset="0%" stop-color="#e9c27d"/>
      <stop offset="55%" stop-color="#d6a35d"/>
      <stop offset="100%" stop-color="#b57b39"/>
    </linearGradient>
    <filter id="grain" x="-20%" y="-20%" width="140%" height="140%">
      <feTurbulence type="fractalNoise" baseFrequency="0.65" numOctaves="2" seed="16"/>
      <feColorMatrix type="saturate" values="0.15"/>
      <feComponentTransfer><feFuncA type="table" tableValues="0 0.08"/></feComponentTransfer>
    </filter>
    <style>
      .grid { stroke:#2f1a08; stroke-width:3.6; stroke-linecap:round; opacity:0.9; }
      .star { fill:#201205; }
      .label { fill:#3a1f0c; font-family:Inter,system-ui,sans-serif; font-size:28px; font-weight:600; opacity:0.75; }
    </style>
  </defs>
  <rect x="0" y="0" width="1400" height="1400" rx="48" fill="url(#wood)"/>
  <rect x="122" y="122" width="1156" height="1156" rx="14" fill="none" stroke="#5b371a" stroke-width="8" opacity="0.5"/>
  <rect x="140" y="140" width="1120" height="1120" fill="none" stroke="#2f1a08" stroke-width="4" opacity="0.7"/>
  <rect x="0" y="0" width="1400" height="1400" rx="48" filter="url(#grain)"/>
  <g>
    <line x1="140.00" y1="140" x2="140.00" y2="1260" class="grid"/>
    <line x1="140" y1="140.00" x2="1260" y2="140.00" class="grid"/>
    <line x1="214.67" y1="140" x2="214.67" y2="1260" class="grid"/>
    <line x1="140" y1="214.67" x2="1260" y2="214.67" class="grid"/>
    <line x1="289.33" y1="140" x2="289.33" y2="1260" class="grid"/>
    <line x1="140" y1="289.33" x2="1260" y2="289.33" class="grid"/>
    <line x1="364.00" y1="140" x2="364.00" y2="1260" class="grid"/>
    <line x1="140" y1="364.00" x2="1260" y2="364.00" class="grid"/>
    <line x1="438.67" y1="140" x2="438.67" y2="1260" class="grid"/>
    <line x1="140" y1="438.67" x2="1260" y2="438.67" class="grid"/>
    <line x1="513.33" y1="140" x2="513.33" y2="1260" class="grid"/>
    <line x1="140" y1="513.33" x2="1260" y2="513.33" class="grid"/>
    <line x1="588.00" y1="140" x2="588.00" y2="1260" class="grid"/>
    <line x1="140" y1="588.00" x2="1260" y2="588.00" class="grid"/>
    <line x1="662.67" y1="140" x2="662.67" y2="1260" class="grid"/>
    <line x1="140" y1="662.67" x2="1260" y2="662.67" class="grid"/>
    <line x1="737.33" y1="140" x2="737.33" y2="1260" class="grid"/>
    <line x1="140" y1="737.33" x2="1260" y2="737.33" class="grid"/>
    <line x1="812.00" y1="140" x2="812.00" y2="1260" class="grid"/>
    <line x1="140" y1="812.00" x2="1260" y2="812.00" class="grid"/>
    <line x1="886.67" y1="140" x2="886.67" y2="1260" class="grid"/>
    <line x1="140" y1="886.67" x2="1260" y2="886.67" class="grid"/>
    <line x1="961.33" y1="140" x2="961.33" y2="1260" class="grid"/>
    <line x1="140" y1="961.33" x2="1260" y2="961.33" class="grid"/>
    <line x1="1036.00" y1="140" x2="1036.00" y2="1260" class="grid"/>
    <line x1="140" y1="1036.00" x2="1260" y2="1036.00" class="grid"/>
    <line x1="1110.67" y1="140" x2="1110.67" y2="1260" class="grid"/>
    <line x1="140" y1="1110.67" x2="1260" y2="1110.67" class="grid"/>
    <line x1="1185.33" y1="140" x2="1185.33" y2="1260" class="grid"/>
    <line x1="140" y1="1185.33" x2="1260" y2="1185.33" class="grid"/>
    <line x1="1260.00" y1="140" x2="1260.00" y2="1260" class="grid"/>
    <line x1="140" y1="1260.00" x2="1260" y2="1260.00" class="grid"/>
    <circle cx="364.00" cy="364.00" r="10" class="star"/>
    <circle cx="1036.00" cy="364.00" r="10" class="star"/>
    <circle cx="364.00" cy="1036.00" r="10" class="star"/>
    <circle cx="1036.00" cy="1036.00" r="10" class="star"/>
    <circle cx="662.67" cy="662.67" r="10" class="star"/>
    <circle cx="737.33" cy="662.67" r="10" class="star"/>
    <circle cx="662.67" cy="737.33" r="10" class="star"/>
    <circle cx="737.33" cy="737.33" r="10" class="star"/>
  </g>
    <text x="140.00" y="1308" class="label" text-anchor="middle">A</text>
    <text x="214.67" y="1308" class="label" text-anchor="middle">B</text>
    <text x="289.33" y="1308" class="label" text-anchor="middle">C</text>
    <text x="364.00" y="1308" class="label" text-anchor="middle">D</text>
    <text x="438.67" y="1308" class="label" text-anchor="middle">E</text>
    <text x="513.33" y="1308" class="label" text-anchor="middle">F</text>
    <text x="588.00" y="1308" class="label" text-anchor="middle">G</text>
    <text x="662.67" y="1308" class="label" text-anchor="middle">H</text>
    <text x="737.33" y="1308" class="label" text-anchor="middle">J</text>
    <text x="812.00" y="1308" class="label" text-anchor="middle">K</text>
    <text x="886.67" y="1308" class="label" text-anchor="middle">L</text>
    <text x="961.33" y="1308" class="label" text-anchor="middle">M</text>
    <text x="1036.00" y="1308" class="label" text-anchor="middle">N</text>
    <text x="1110.67" y="1308" class="label" text-anchor="middle">O</text>
    <text x="1185.33" y="1308" class="label" text-anchor="middle">P</text>
    <text x="1260.00" y="1308" class="label" text-anchor="middle">Q</text>
    <text x="92" y="146.00" class="label" text-anchor="middle">16</text>
    <text x="92" y="220.67" class="label" text-anchor="middle">15</text>
    <text x="92" y="295.33" class="label" text-anchor="middle">14</text>
    <text x="92" y="370.00" class="label" text-anchor="middle">13</text>
    <text x="92" y="444.67" class="label" text-anchor="middle">12</text>
    <text x="92" y="519.33" class="label" text-anchor="middle">11</text>
    <text x="92" y="594.00" class="label" text-anchor="middle">10</text>
    <text x="92" y="668.67" class="label" text-anchor="middle">9</text>
    <text x="92" y="743.33" class="label" text-anchor="middle">8</text>
    <text x="92" y="818.00" class="label" text-anchor="middle">7</text>
    <text x="92" y="892.67" class="label" text-anchor="middle">6</text>
    <text x="92" y="967.33" class="label" text-anchor="middle">5</text>
    <text x="92" y="1042.00" class="label" text-anchor="middle">4</text>
    <text x="92" y="1116.67" class="label" text-anchor="middle">3</text>
    <text x="92" y="1191.33" class="label" text-anchor="middle">2</text>
    <text x="92" y="1266.00" class="label" text-anchor="middle">1</text>
</svg>
