<svg xmlns="http://www.w3.org/2000/svg" viewBox="0 0 1024 1024">
  <defs>
    <filter id="boardShadow" x="-10%" y="-10%" width="120%" height="120%">
      <feDropShadow dx="0" dy="2" stdDeviation="1.5" flood-color="#000" flood-opacity="0.28"/>
    </filter>
    <style>
      .g { stroke:#2f1808; stroke-linecap:round; stroke-opacity:.86; }
      .s { fill:#251208; opacity:.95; }
    </style>
  </defs>
  <image href="/assets/game-art/baduk-battle-royal/boards/ogs-anime-board.svg" x="0" y="0" width="1024" height="1024" preserveAspectRatio="none"/>
  <rect x="80" y="80" width="864" height="864" fill="none" stroke="#6e4724" stroke-opacity="0.45" stroke-width="2.4" filter="url(#boardShadow)"/>
  <line x1="86.00" y1="86" x2="86.00" y2="938" class="g" stroke-width="3.2"/><line x1="86" y1="86.00" x2="938" y2="86.00" class="g" stroke-width="3.2"/><line x1="142.80" y1="86" x2="142.80" y2="938" class="g" stroke-width="2.4"/><line x1="86" y1="142.80" x2="938" y2="142.80" class="g" stroke-width="2.4"/><line x1="199.60" y1="86" x2="199.60" y2="938" class="g" stroke-width="2.4"/><line x1="86" y1="199.60" x2="938" y2="199.60" class="g" stroke-width="2.4"/><line x1="256.40" y1="86" x2="256.40" y2="938" class="g" stroke-width="2.4"/><line x1="86" y1="256.40" x2="938" y2="256.40" class="g" stroke-width="2.4"/><line x1="313.20" y1="86" x2="313.20" y2="938" class="g" stroke-width="2.4"/><line x1="86" y1="313.20" x2="938" y2="313.20" class="g" stroke-width="2.4"/><line x1="370.00" y1="86" x2="370.00" y2="938" class="g" stroke-width="2.4"/><line x1="86" y1="370.00" x2="938" y2="370.00" class="g" stroke-width="2.4"/><line x1="426.80" y1="86" x2="426.80" y2="938" class="g" stroke-width="2.4"/><line x1="86" y1="426.80" x2="938" y2="426.80" class="g" stroke-width="2.4"/><line x1="483.60" y1="86" x2="483.60" y2="938" class="g" stroke-width="2.4"/><line x1="86" y1="483.60" x2="938" y2="483.60" class="g" stroke-width="2.4"/><line x1="540.40" y1="86" x2="540.40" y2="938" class="g" stroke-width="2.4"/><line x1="86" y1="540.40" x2="938" y2="540.40" class="g" stroke-width="2.4"/><line x1="597.20" y1="86" x2="597.20" y2="938" class="g" stroke-width="2.4"/><line x1="86" y1="597.20" x2="938" y2="597.20" class="g" stroke-width="2.4"/><line x1="654.00" y1="86" x2="654.00" y2="938" class="g" stroke-width="2.4"/><line x1="86" y1="654.00" x2="938" y2="654.00" class="g" stroke-width="2.4"/><line x1="710.80" y1="86" x2="710.80" y2="938" class="g" stroke-width="2.4"/><line x1="86" y1="710.80" x2="938" y2="710.80" class="g" stroke-width="2.4"/><line x1="767.60" y1="86" x2="767.60" y2="938" class="g" stroke-width="2.4"/><line x1="86" y1="767.60" x2="938" y2="767.60" class="g" stroke-width="2.4"/><line x1="824.40" y1="86" x2="824.40" y2="938" class="g" stroke-width="2.4"/><line x1="86" y1="824.40" x2="938" y2="824.40" class="g" stroke-width="2.4"/><line x1="881.20" y1="86" x2="881.20" y2="938" class="g" stroke-width="2.4"/><line x1="86" y1="881.20" x2="938" y2="881.20" class="g" stroke-width="2.4"/><line x1="938.00" y1="86" x2="938.00" y2="938" class="g" stroke-width="3.2"/><line x1="86" y1="938.00" x2="938" y2="938.00" class="g" stroke-width="3.2"/>
  <circle cx="256.40" cy="256.40" r="6.8" class="s"/><circle cx="767.60" cy="256.40" r="6.8" class="s"/><circle cx="256.40" cy="767.60" r="6.8" class="s"/><circle cx="767.60" cy="767.60" r="6.8" class="s"/><circle cx="483.60" cy="483.60" r="6.8" class="s"/><circle cx="540.40" cy="483.60" r="6.8" class="s"/><circle cx="483.60" cy="540.40" r="6.8" class="s"/><circle cx="540.40" cy="540.40" r="6.8" class="s"/>
</svg>