<svg xmlns="http://www.w3.org/2000/svg" viewBox="0 0 1400 1400" role="img" aria-label="Baduk 19x19 board">
  <defs>
    <linearGradient id="wood" x1="0" y1="0" x2="1" y2="1">
      <stop offset="0%" stop-color="#e9c27d"/>
      <stop offset="55%" stop-color="#d6a35d"/>
      <stop offset="100%" stop-color="#b57b39"/>
    </linearGradient>
    <filter id="grain" x="-20%" y="-20%" width="140%" height="140%">
      <feTurbulence type="fractalNoise" baseFrequency="0.65" numOctaves="2" seed="19"/>
      <feColorMatrix type="saturate" values="0.15"/>
      <feComponentTransfer><feFuncA type="table" tableValues="0 0.08"/></feComponentTransfer>
    </filter>
    <style>
      .grid { stroke:#2f1a08; stroke-width:3.6; stroke-linecap:round; opacity:0.9; }
      .star { fill:#201205; }
      .label { fill:#3a1f0c; font-family:Inter,system-ui,sans-serif; font-size:28px; font-weight:600; opacity:0.75; }
    </style>
  </defs>
  <rect x="0" y="0" width="1400" height="1400" rx="48" fill="url(#wood)"/>
  <rect x="122" y="122" width="1156" height="1156" rx="14" fill="none" stroke="#5b371a" stroke-width="8" opacity="0.5"/>
  <rect x="140" y="140" width="1120" height="1120" fill="none" stroke="#2f1a08" stroke-width="4" opacity="0.7"/>
  <rect x="0" y="0" width="1400" height="1400" rx="48" filter="url(#grain)"/>
  <g>
    <line x1="140.00" y1="140" x2="140.00" y2="1260" class="grid"/>
    <line x1="140" y1="140.00" x2="1260" y2="140.00" class="grid"/>
    <line x1="202.22" y1="140" x2="202.22" y2="1260" class="grid"/>
    <line x1="140" y1="202.22" x2="1260" y2="202.22" class="grid"/>
    <line x1="264.44" y1="140" x2="264.44" y2="1260" class="grid"/>
    <line x1="140" y1="264.44" x2="1260" y2="264.44" class="grid"/>
    <line x1="326.67" y1="140" x2="326.67" y2="1260" class="grid"/>
    <line x1="140" y1="326.67" x2="1260" y2="326.67" class="grid"/>
    <line x1="388.89" y1="140" x2="388.89" y2="1260" class="grid"/>
    <line x1="140" y1="388.89" x2="1260" y2="388.89" class="grid"/>
    <line x1="451.11" y1="140" x2="451.11" y2="1260" class="grid"/>
    <line x1="140" y1="451.11" x2="1260" y2="451.11" class="grid"/>
    <line x1="513.33" y1="140" x2="513.33" y2="1260" class="grid"/>
    <line x1="140" y1="513.33" x2="1260" y2="513.33" class="grid"/>
    <line x1="575.56" y1="140" x2="575.56" y2="1260" class="grid"/>
    <line x1="140" y1="575.56" x2="1260" y2="575.56" class="grid"/>
    <line x1="637.78" y1="140" x2="637.78" y2="1260" class="grid"/>
    <line x1="140" y1="637.78" x2="1260" y2="637.78" class="grid"/>
    <line x1="700.00" y1="140" x2="700.00" y2="1260" class="grid"/>
    <line x1="140" y1="700.00" x2="1260" y2="700.00" class="grid"/>
    <line x1="762.22" y1="140" x2="762.22" y2="1260" class="grid"/>
    <line x1="140" y1="762.22" x2="1260" y2="762.22" class="grid"/>
    <line x1="824.44" y1="140" x2="824.44" y2="1260" class="grid"/>
    <line x1="140" y1="824.44" x2="1260" y2="824.44" class="grid"/>
    <line x1="886.67" y1="140" x2="886.67" y2="1260" class="grid"/>
    <line x1="140" y1="886.67" x2="1260" y2="886.67" class="grid"/>
    <line x1="948.89" y1="140" x2="948.89" y2="1260" class="grid"/>
    <line x1="140" y1="948.89" x2="1260" y2="948.89" class="grid"/>
    <line x1="1011.11" y1="140" x2="1011.11" y2="1260" class="grid"/>
    <line x1="140" y1="1011.11" x2="1260" y2="1011.11" class="grid"/>
    <line x1="1073.33" y1="140" x2="1073.33" y2="1260" class="grid"/>
    <line x1="140" y1="1073.33" x2="1260" y2="1073.33" class="grid"/>
    <line x1="1135.56" y1="140" x2="1135.56" y2="1260" class="grid"/>
    <line x1="140" y1="1135.56" x2="1260" y2="1135.56" class="grid"/>
    <line x1="1197.78" y1="140" x2="1197.78" y2="1260" class="grid"/>
    <line x1="140" y1="1197.78" x2="1260" y2="1197.78" class="grid"/>
    <line x1="1260.00" y1="140" x2="1260.00" y2="1260" class="grid"/>
    <line x1="140" y1="1260.00" x2="1260" y2="1260.00" class="grid"/>
    <circle cx="326.67" cy="326.67" r="10" class="star"/>
    <circle cx="700.00" cy="326.67" r="10" class="star"/>
    <circle cx="1073.33" cy="326.67" r="10" class="star"/>
    <circle cx="326.67" cy="700.00" r="10" class="star"/>
    <circle cx="700.00" cy="700.00" r="10" class="star"/>
    <circle cx="1073.33" cy="700.00" r="10" class="star"/>
    <circle cx="326.67" cy="1073.33" r="10" class="star"/>
    <circle cx="700.00" cy="1073.33" r="10" class="star"/>
    <circle cx="1073.33" cy="1073.33" r="10" class="star"/>
  </g>
    <text x="140.00" y="1308" class="label" text-anchor="middle">A</text>
    <text x="202.22" y="1308" class="label" text-anchor="middle">B</text>
    <text x="264.44" y="1308" class="label" text-anchor="middle">C</text>
    <text x="326.67" y="1308" class="label" text-anchor="middle">D</text>
    <text x="388.89" y="1308" class="label" text-anchor="middle">E</text>
    <text x="451.11" y="1308" class="label" text-anchor="middle">F</text>
    <text x="513.33" y="1308" class="label" text-anchor="middle">G</text>
    <text x="575.56" y="1308" class="label" text-anchor="middle">H</text>
    <text x="637.78" y="1308" class="label" text-anchor="middle">J</text>
    <text x="700.00" y="1308" class="label" text-anchor="middle">K</text>
    <text x="762.22" y="1308" class="label" text-anchor="middle">L</text>
    <text x="824.44" y="1308" class="label" text-anchor="middle">M</text>
    <text x="886.67" y="1308" class="label" text-anchor="middle">N</text>
    <text x="948.89" y="1308" class="label" text-anchor="middle">O</text>
    <text x="1011.11" y="1308" class="label" text-anchor="middle">P</text>
    <text x="1073.33" y="1308" class="label" text-anchor="middle">Q</text>
    <text x="1135.56" y="1308" class="label" text-anchor="middle">R</text>
    <text x="1197.78" y="1308" class="label" text-anchor="middle">S</text>
    <text x="1260.00" y="1308" class="label" text-anchor="middle">T</text>
    <text x="92" y="146.00" class="label" text-anchor="middle">19</text>
    <text x="92" y="208.22" class="label" text-anchor="middle">18</text>
    <text x="92" y="270.44" class="label" text-anchor="middle">17</text>
    <text x="92" y="332.67" class="label" text-anchor="middle">16</text>
    <text x="92" y="394.89" class="label" text-anchor="middle">15</text>
    <text x="92" y="457.11" class="label" text-anchor="middle">14</text>
    <text x="92" y="519.33" class="label" text-anchor="middle">13</text>
    <text x="92" y="581.56" class="label" text-anchor="middle">12</text>
    <text x="92" y="643.78" class="label" text-anchor="middle">11</text>
    <text x="92" y="706.00" class="label" text-anchor="middle">10</text>
    <text x="92" y="768.22" class="label" text-anchor="middle">9</text>
    <text x="92" y="830.44" class="label" text-anchor="middle">8</text>
    <text x="92" y="892.67" class="label" text-anchor="middle">7</text>
    <text x="92" y="954.89" class="label" text-anchor="middle">6</text>
    <text x="92" y="1017.11" class="label" text-anchor="middle">5</text>
    <text x="92" y="1079.33" class="label" text-anchor="middle">4</text>
    <text x="92" y="1141.56" class="label" text-anchor="middle">3</text>
    <text x="92" y="1203.78" class="label" text-anchor="middle">2</text>
    <text x="92" y="1266.00" class="label" text-anchor="middle">1</text>
</svg>
