<svg xmlns="http://www.w3.org/2000/svg" viewBox="0 0 1024 1024">
  <defs>
    <filter id="boardShadow" x="-10%" y="-10%" width="120%" height="120%">
      <feDropShadow dx="0" dy="2" stdDeviation="1.5" flood-color="#000" flood-opacity="0.28"/>
    </filter>
    <style>
      .g { stroke:#2f1808; stroke-linecap:round; stroke-opacity:.86; }
      .s { fill:#251208; opacity:.95; }
    </style>
  </defs>
  <image href="/assets/game-art/baduk-battle-royal/boards/ogs-anime-board.svg" x="0" y="0" width="1024" height="1024" preserveAspectRatio="none"/>
  <rect x="80" y="80" width="864" height="864" fill="none" stroke="#6e4724" stroke-opacity="0.45" stroke-width="2.4" filter="url(#boardShadow)"/>
  <line x1="86.00" y1="86" x2="86.00" y2="938" class="g" stroke-width="3.2"/><line x1="86" y1="86.00" x2="938" y2="86.00" class="g" stroke-width="3.2"/><line x1="133.33" y1="86" x2="133.33" y2="938" class="g" stroke-width="2.4"/><line x1="86" y1="133.33" x2="938" y2="133.33" class="g" stroke-width="2.4"/><line x1="180.67" y1="86" x2="180.67" y2="938" class="g" stroke-width="2.4"/><line x1="86" y1="180.67" x2="938" y2="180.67" class="g" stroke-width="2.4"/><line x1="228.00" y1="86" x2="228.00" y2="938" class="g" stroke-width="2.4"/><line x1="86" y1="228.00" x2="938" y2="228.00" class="g" stroke-width="2.4"/><line x1="275.33" y1="86" x2="275.33" y2="938" class="g" stroke-width="2.4"/><line x1="86" y1="275.33" x2="938" y2="275.33" class="g" stroke-width="2.4"/><line x1="322.67" y1="86" x2="322.67" y2="938" class="g" stroke-width="2.4"/><line x1="86" y1="322.67" x2="938" y2="322.67" class="g" stroke-width="2.4"/><line x1="370.00" y1="86" x2="370.00" y2="938" class="g" stroke-width="2.4"/><line x1="86" y1="370.00" x2="938" y2="370.00" class="g" stroke-width="2.4"/><line x1="417.33" y1="86" x2="417.33" y2="938" class="g" stroke-width="2.4"/><line x1="86" y1="417.33" x2="938" y2="417.33" class="g" stroke-width="2.4"/><line x1="464.67" y1="86" x2="464.67" y2="938" class="g" stroke-width="2.4"/><line x1="86" y1="464.67" x2="938" y2="464.67" class="g" stroke-width="2.4"/><line x1="512.00" y1="86" x2="512.00" y2="938" class="g" stroke-width="2.4"/><line x1="86" y1="512.00" x2="938" y2="512.00" class="g" stroke-width="2.4"/><line x1="559.33" y1="86" x2="559.33" y2="938" class="g" stroke-width="2.4"/><line x1="86" y1="559.33" x2="938" y2="559.33" class="g" stroke-width="2.4"/><line x1="606.67" y1="86" x2="606.67" y2="938" class="g" stroke-width="2.4"/><line x1="86" y1="606.67" x2="938" y2="606.67" class="g" stroke-width="2.4"/><line x1="654.00" y1="86" x2="654.00" y2="938" class="g" stroke-width="2.4"/><line x1="86" y1="654.00" x2="938" y2="654.00" class="g" stroke-width="2.4"/><line x1="701.33" y1="86" x2="701.33" y2="938" class="g" stroke-width="2.4"/><line x1="86" y1="701.33" x2="938" y2="701.33" class="g" stroke-width="2.4"/><line x1="748.67" y1="86" x2="748.67" y2="938" class="g" stroke-width="2.4"/><line x1="86" y1="748.67" x2="938" y2="748.67" class="g" stroke-width="2.4"/><line x1="796.00" y1="86" x2="796.00" y2="938" class="g" stroke-width="2.4"/><line x1="86" y1="796.00" x2="938" y2="796.00" class="g" stroke-width="2.4"/><line x1="843.33" y1="86" x2="843.33" y2="938" class="g" stroke-width="2.4"/><line x1="86" y1="843.33" x2="938" y2="843.33" class="g" stroke-width="2.4"/><line x1="890.67" y1="86" x2="890.67" y2="938" class="g" stroke-width="2.4"/><line x1="86" y1="890.67" x2="938" y2="890.67" class="g" stroke-width="2.4"/><line x1="938.00" y1="86" x2="938.00" y2="938" class="g" stroke-width="3.2"/><line x1="86" y1="938.00" x2="938" y2="938.00" class="g" stroke-width="3.2"/>
  <circle cx="228.00" cy="228.00" r="6.8" class="s"/><circle cx="512.00" cy="228.00" r="6.8" class="s"/><circle cx="796.00" cy="228.00" r="6.8" class="s"/><circle cx="228.00" cy="512.00" r="6.8" class="s"/><circle cx="512.00" cy="512.00" r="6.8" class="s"/><circle cx="796.00" cy="512.00" r="6.8" class="s"/><circle cx="228.00" cy="796.00" r="6.8" class="s"/><circle cx="512.00" cy="796.00" r="6.8" class="s"/><circle cx="796.00" cy="796.00" r="6.8" class="s"/>
</svg>