<svg xmlns="http://www.w3.org/2000/svg" viewBox="0 0 1400 1400" role="img" aria-label="Baduk 9x9 board">
  <defs>
    <linearGradient id="wood" x1="0" y1="0" x2="1" y2="1">
      <stop offset="0%" stop-color="#e9c27d"/>
      <stop offset="55%" stop-color="#d6a35d"/>
      <stop offset="100%" stop-color="#b57b39"/>
    </linearGradient>
    <filter id="grain" x="-20%" y="-20%" width="140%" height="140%">
      <feTurbulence type="fractalNoise" baseFrequency="0.65" numOctaves="2" seed="9"/>
      <feColorMatrix type="saturate" values="0.15"/>
      <feComponentTransfer><feFuncA type="table" tableValues="0 0.08"/></feComponentTransfer>
    </filter>
    <style>
      .grid { stroke:#2f1a08; stroke-width:3.6; stroke-linecap:round; opacity:0.9; }
      .star { fill:#201205; }
      .label { fill:#3a1f0c; font-family:Inter,system-ui,sans-serif; font-size:28px; font-weight:600; opacity:0.75; }
    </style>
  </defs>
  <rect x="0" y="0" width="1400" height="1400" rx="48" fill="url(#wood)"/>
  <rect x="122" y="122" width="1156" height="1156" rx="14" fill="none" stroke="#5b371a" stroke-width="8" opacity="0.5"/>
  <rect x="140" y="140" width="1120" height="1120" fill="none" stroke="#2f1a08" stroke-width="4" opacity="0.7"/>
  <rect x="0" y="0" width="1400" height="1400" rx="48" filter="url(#grain)"/>
  <g>
    <line x1="140.00" y1="140" x2="140.00" y2="1260" class="grid"/>
    <line x1="140" y1="140.00" x2="1260" y2="140.00" class="grid"/>
    <line x1="280.00" y1="140" x2="280.00" y2="1260" class="grid"/>
    <line x1="140" y1="280.00" x2="1260" y2="280.00" class="grid"/>
    <line x1="420.00" y1="140" x2="420.00" y2="1260" class="grid"/>
    <line x1="140" y1="420.00" x2="1260" y2="420.00" class="grid"/>
    <line x1="560.00" y1="140" x2="560.00" y2="1260" class="grid"/>
    <line x1="140" y1="560.00" x2="1260" y2="560.00" class="grid"/>
    <line x1="700.00" y1="140" x2="700.00" y2="1260" class="grid"/>
    <line x1="140" y1="700.00" x2="1260" y2="700.00" class="grid"/>
    <line x1="840.00" y1="140" x2="840.00" y2="1260" class="grid"/>
    <line x1="140" y1="840.00" x2="1260" y2="840.00" class="grid"/>
    <line x1="980.00" y1="140" x2="980.00" y2="1260" class="grid"/>
    <line x1="140" y1="980.00" x2="1260" y2="980.00" class="grid"/>
    <line x1="1120.00" y1="140" x2="1120.00" y2="1260" class="grid"/>
    <line x1="140" y1="1120.00" x2="1260" y2="1120.00" class="grid"/>
    <line x1="1260.00" y1="140" x2="1260.00" y2="1260" class="grid"/>
    <line x1="140" y1="1260.00" x2="1260" y2="1260.00" class="grid"/>
    <circle cx="420.00" cy="420.00" r="10" class="star"/>
    <circle cx="980.00" cy="420.00" r="10" class="star"/>
    <circle cx="420.00" cy="980.00" r="10" class="star"/>
    <circle cx="980.00" cy="980.00" r="10" class="star"/>
    <circle cx="700.00" cy="700.00" r="10" class="star"/>
  </g>
    <text x="140.00" y="1308" class="label" text-anchor="middle">A</text>
    <text x="280.00" y="1308" class="label" text-anchor="middle">B</text>
    <text x="420.00" y="1308" class="label" text-anchor="middle">C</text>
    <text x="560.00" y="1308" class="label" text-anchor="middle">D</text>
    <text x="700.00" y="1308" class="label" text-anchor="middle">E</text>
    <text x="840.00" y="1308" class="label" text-anchor="middle">F</text>
    <text x="980.00" y="1308" class="label" text-anchor="middle">G</text>
    <text x="1120.00" y="1308" class="label" text-anchor="middle">H</text>
    <text x="1260.00" y="1308" class="label" text-anchor="middle">J</text>
    <text x="92" y="146.00" class="label" text-anchor="middle">9</text>
    <text x="92" y="286.00" class="label" text-anchor="middle">8</text>
    <text x="92" y="426.00" class="label" text-anchor="middle">7</text>
    <text x="92" y="566.00" class="label" text-anchor="middle">6</text>
    <text x="92" y="706.00" class="label" text-anchor="middle">5</text>
    <text x="92" y="846.00" class="label" text-anchor="middle">4</text>
    <text x="92" y="986.00" class="label" text-anchor="middle">3</text>
    <text x="92" y="1126.00" class="label" text-anchor="middle">2</text>
    <text x="92" y="1266.00" class="label" text-anchor="middle">1</text>
</svg>
