<svg xmlns="http://www.w3.org/2000/svg" viewBox="0 0 1024 1024">
  <defs>
    <linearGradient id="woodTint" x1="0" y1="0" x2="0" y2="1">
      <stop offset="0%" stop-color="#c9f2d4" stop-opacity="0.26"/>
      <stop offset="100%" stop-color="#2f7f64" stop-opacity="0.22"/>
    </linearGradient>
    <pattern id="grain" width="24" height="24" patternUnits="userSpaceOnUse">
      <path d="M0 12h24" stroke="#0d3d2f" stroke-opacity="0.06" stroke-width="1"/>
      <path d="M0 6h24" stroke="#ecfeff" stroke-opacity="0.04" stroke-width="0.8"/>
    </pattern>
    <style>
      .g { stroke:#114233; stroke-linecap:round; stroke-opacity:.9; }
      .s { fill:#0c2e24; opacity:.96; }
    </style>
  </defs>
  <image href="/assets/game-art/baduk-battle-royal/boards/ogs-anime-board.svg" x="0" y="0" width="1024" height="1024" preserveAspectRatio="none"/>
  <rect x="86" y="86" width="852" height="852" fill="url(#woodTint)"/>
  <rect x="86" y="86" width="852" height="852" fill="url(#grain)"/>
  <line x1="86.0000" y1="86" x2="86.0000" y2="938" class="g" stroke-width="3.2"/>
  <line x1="86" y1="86.0000" x2="938" y2="86.0000" class="g" stroke-width="3.2"/>
  <line x1="192.5000" y1="86" x2="192.5000" y2="938" class="g" stroke-width="2.2"/>
  <line x1="86" y1="192.5000" x2="938" y2="192.5000" class="g" stroke-width="2.2"/>
  <line x1="299.0000" y1="86" x2="299.0000" y2="938" class="g" stroke-width="2.2"/>
  <line x1="86" y1="299.0000" x2="938" y2="299.0000" class="g" stroke-width="2.2"/>
  <line x1="405.5000" y1="86" x2="405.5000" y2="938" class="g" stroke-width="2.2"/>
  <line x1="86" y1="405.5000" x2="938" y2="405.5000" class="g" stroke-width="2.2"/>
  <line x1="512.0000" y1="86" x2="512.0000" y2="938" class="g" stroke-width="2.2"/>
  <line x1="86" y1="512.0000" x2="938" y2="512.0000" class="g" stroke-width="2.2"/>
  <line x1="618.5000" y1="86" x2="618.5000" y2="938" class="g" stroke-width="2.2"/>
  <line x1="86" y1="618.5000" x2="938" y2="618.5000" class="g" stroke-width="2.2"/>
  <line x1="725.0000" y1="86" x2="725.0000" y2="938" class="g" stroke-width="2.2"/>
  <line x1="86" y1="725.0000" x2="938" y2="725.0000" class="g" stroke-width="2.2"/>
  <line x1="831.5000" y1="86" x2="831.5000" y2="938" class="g" stroke-width="2.2"/>
  <line x1="86" y1="831.5000" x2="938" y2="831.5000" class="g" stroke-width="2.2"/>
  <line x1="938.0000" y1="86" x2="938.0000" y2="938" class="g" stroke-width="3.2"/>
  <line x1="86" y1="938.0000" x2="938" y2="938.0000" class="g" stroke-width="3.2"/>
  <circle cx="299.0000" cy="299.0000" r="6.6" class="s"/>
  <circle cx="725.0000" cy="299.0000" r="6.6" class="s"/>
  <circle cx="299.0000" cy="725.0000" r="6.6" class="s"/>
  <circle cx="725.0000" cy="725.0000" r="6.6" class="s"/>
  <circle cx="512.0000" cy="512.0000" r="6.6" class="s"/>
</svg>
