<svg xmlns="http://www.w3.org/2000/svg" viewBox="0 0 1024 1024">
  <defs>
    <linearGradient id="woodTint" x1="0" y1="0" x2="0" y2="1">
      <stop offset="0%" stop-color="#6b7280" stop-opacity="0.26"/>
      <stop offset="100%" stop-color="#111827" stop-opacity="0.22"/>
    </linearGradient>
    <pattern id="grain" width="24" height="24" patternUnits="userSpaceOnUse">
      <path d="M0 12h24" stroke="#1f2937" stroke-opacity="0.06" stroke-width="1"/>
      <path d="M0 6h24" stroke="#ffffff" stroke-opacity="0.04" stroke-width="0.8"/>
    </pattern>
    <style>
      .g { stroke:#f3f4f6; stroke-linecap:round; stroke-opacity:.9; }
      .s { fill:#d1d5db; opacity:.96; }
    </style>
  </defs>
  <image href="/assets/game-art/baduk-battle-royal/boards/ogs-anime-board.svg" x="0" y="0" width="1024" height="1024" preserveAspectRatio="none"/>
  <rect x="86" y="86" width="852" height="852" fill="url(#woodTint)"/>
  <rect x="86" y="86" width="852" height="852" fill="url(#grain)"/>
  <line x1="86.0000" y1="86" x2="86.0000" y2="938" class="g" stroke-width="3.2"/>
  <line x1="86" y1="86.0000" x2="938" y2="86.0000" class="g" stroke-width="3.2"/>
  <line x1="142.8000" y1="86" x2="142.8000" y2="938" class="g" stroke-width="2.2"/>
  <line x1="86" y1="142.8000" x2="938" y2="142.8000" class="g" stroke-width="2.2"/>
  <line x1="199.6000" y1="86" x2="199.6000" y2="938" class="g" stroke-width="2.2"/>
  <line x1="86" y1="199.6000" x2="938" y2="199.6000" class="g" stroke-width="2.2"/>
  <line x1="256.4000" y1="86" x2="256.4000" y2="938" class="g" stroke-width="2.2"/>
  <line x1="86" y1="256.4000" x2="938" y2="256.4000" class="g" stroke-width="2.2"/>
  <line x1="313.2000" y1="86" x2="313.2000" y2="938" class="g" stroke-width="2.2"/>
  <line x1="86" y1="313.2000" x2="938" y2="313.2000" class="g" stroke-width="2.2"/>
  <line x1="370.0000" y1="86" x2="370.0000" y2="938" class="g" stroke-width="2.2"/>
  <line x1="86" y1="370.0000" x2="938" y2="370.0000" class="g" stroke-width="2.2"/>
  <line x1="426.8000" y1="86" x2="426.8000" y2="938" class="g" stroke-width="2.2"/>
  <line x1="86" y1="426.8000" x2="938" y2="426.8000" class="g" stroke-width="2.2"/>
  <line x1="483.6000" y1="86" x2="483.6000" y2="938" class="g" stroke-width="2.2"/>
  <line x1="86" y1="483.6000" x2="938" y2="483.6000" class="g" stroke-width="2.2"/>
  <line x1="540.4000" y1="86" x2="540.4000" y2="938" class="g" stroke-width="2.2"/>
  <line x1="86" y1="540.4000" x2="938" y2="540.4000" class="g" stroke-width="2.2"/>
  <line x1="597.2000" y1="86" x2="597.2000" y2="938" class="g" stroke-width="2.2"/>
  <line x1="86" y1="597.2000" x2="938" y2="597.2000" class="g" stroke-width="2.2"/>
  <line x1="654.0000" y1="86" x2="654.0000" y2="938" class="g" stroke-width="2.2"/>
  <line x1="86" y1="654.0000" x2="938" y2="654.0000" class="g" stroke-width="2.2"/>
  <line x1="710.8000" y1="86" x2="710.8000" y2="938" class="g" stroke-width="2.2"/>
  <line x1="86" y1="710.8000" x2="938" y2="710.8000" class="g" stroke-width="2.2"/>
  <line x1="767.6000" y1="86" x2="767.6000" y2="938" class="g" stroke-width="2.2"/>
  <line x1="86" y1="767.6000" x2="938" y2="767.6000" class="g" stroke-width="2.2"/>
  <line x1="824.4000" y1="86" x2="824.4000" y2="938" class="g" stroke-width="2.2"/>
  <line x1="86" y1="824.4000" x2="938" y2="824.4000" class="g" stroke-width="2.2"/>
  <line x1="881.2000" y1="86" x2="881.2000" y2="938" class="g" stroke-width="2.2"/>
  <line x1="86" y1="881.2000" x2="938" y2="881.2000" class="g" stroke-width="2.2"/>
  <line x1="938.0000" y1="86" x2="938.0000" y2="938" class="g" stroke-width="3.2"/>
  <line x1="86" y1="938.0000" x2="938" y2="938.0000" class="g" stroke-width="3.2"/>
  <circle cx="256.4000" cy="256.4000" r="6.6" class="s"/>
  <circle cx="767.6000" cy="256.4000" r="6.6" class="s"/>
  <circle cx="256.4000" cy="767.6000" r="6.6" class="s"/>
  <circle cx="767.6000" cy="767.6000" r="6.6" class="s"/>
  <circle cx="483.6000" cy="483.6000" r="6.6" class="s"/>
  <circle cx="540.4000" cy="483.6000" r="6.6" class="s"/>
  <circle cx="483.6000" cy="540.4000" r="6.6" class="s"/>
  <circle cx="540.4000" cy="540.4000" r="6.6" class="s"/>
</svg>
